<svg width="32" height="32" viewBox="0 0 32 32" fill="none" xmlns="http://www.w3.org/2000/svg">
<path d="M6.15914 10.7054C6.03912 9.62557 5.73917 9.20564 5.5592 8.8457H24.9592C26.3059 8.8457 27.2829 10.1277 26.9258 11.4262L25.4757 16.5244C24.5759 19.9438 24.3359 20.8436 20.6766 20.8436H7.83889C7.65892 19.7038 7.179 16.9443 6.99903 15.9245L6.15914 10.7054Z" fill="#9AC8FF"/>
<path d="M24.0961 29.1225C24.0961 30.3152 23.1292 31.2821 21.9365 31.2821C20.7438 31.2821 19.7769 30.3152 19.7769 29.1225C19.7769 27.9298 20.7438 26.9629 21.9365 26.9629C23.1292 26.9629 24.0961 27.9298 24.0961 29.1225Z" fill="#019BF0"/>
<path d="M10.4182 29.1225C10.4182 30.3152 9.45135 31.2821 8.25862 31.2821C7.0659 31.2821 6.099 30.3152 6.099 29.1225C6.099 27.9298 7.0659 26.9629 8.25862 26.9629C9.45135 26.9629 10.4182 27.9298 10.4182 29.1225Z" fill="#019BF0"/>
<path d="M23.2561 24.3232H10.0584C8.32849 24.2162 7.62659 23.7174 6.99896 21.8036L5.19927 10.6456C4.86944 9.05795 4.35599 8.60672 2.91967 8.48596H1" stroke="#019BF0" stroke-width="2" stroke-linecap="round"/>
<circle cx="23.1309" cy="8.13049" r="8" fill="#FAE100"/>
<path d="M23.9639 5.00159V12.1305H22.6699V6.51038L20.9561 7.07678V6.03186L23.8174 5.00159H23.9639Z" fill="#1E22AA"/>
</svg>
