<svg width="17" height="16" viewBox="0 0 17 16" fill="none" xmlns="http://www.w3.org/2000/svg">
<g clip-path="url(#clip0_597_2269)">
<path d="M8.64954 14.3115L2.83832 8.50024V9.68742C2.83832 10.002 2.96297 10.3047 3.18853 10.5244L7.81258 15.1484C8.27558 15.6114 9.02943 15.6114 9.49243 15.1484L13.1786 11.4622C13.6416 10.9992 13.6416 10.2454 13.1786 9.78239L8.64954 14.3115Z" fill="#767676"/>
<path d="M7.81264 12.1805C8.04414 12.412 8.34687 12.5308 8.6496 12.5308C8.95233 12.5308 9.25506 12.412 9.48656 12.1805L13.1727 8.49437C13.6357 8.03137 13.6357 7.27751 13.1727 6.81452L8.54869 2.19047C8.32906 1.97084 8.02633 1.84619 7.71173 1.84619H4.02555C3.37261 1.84619 2.83838 2.38042 2.83838 3.03337V6.71954C2.83838 7.03414 2.96303 7.33687 3.1886 7.5565L7.81264 12.1805ZM4.02555 3.03337H7.71173L12.3358 7.65741L8.6496 11.3436L4.02555 6.71954V3.03337Z" fill="#767676"/>
<path d="M5.36106 5.11092C5.77085 5.11092 6.10305 4.77872 6.10305 4.36894C6.10305 3.95915 5.77085 3.62695 5.36106 3.62695C4.95128 3.62695 4.61908 3.95915 4.61908 4.36894C4.61908 4.77872 4.95128 5.11092 5.36106 5.11092Z" fill="#767676"/>
</g>
<defs>
<clipPath id="clip0_597_2269">
<rect width="16" height="16" fill="white" transform="translate(0.900024)"/>
</clipPath>
</defs>
</svg>
