<svg width="24" height="25" viewBox="0 0 24 25" fill="none" xmlns="http://www.w3.org/2000/svg">
<g clip-path="url(#clip0_822_1386)">
<path d="M4.27023 1.00024C1.90471 1.00024 0 2.90496 0 5.27047V20.1165C0 22.482 1.90471 24.3867 4.27023 24.3867H12.3166V15.2441H9.89907V11.9524H12.3166V9.14021C12.3166 6.93077 13.7451 4.90214 17.0356 4.90214C18.3679 4.90214 19.3531 5.03004 19.3531 5.03004L19.2756 8.10391C19.2756 8.10391 18.2708 8.09441 17.1744 8.09441C15.9878 8.09441 15.7976 8.64114 15.7976 9.54877V11.9525H19.3698L19.2142 15.2441H15.7976V24.3868H19.1162C21.4818 24.3868 23.3865 22.4821 23.3865 20.1165V5.2705C23.3865 2.90498 21.4818 1.00027 19.1162 1.00027H4.27021L4.27023 1.00024Z" fill="white"/>
</g>
<defs>
<clipPath id="clip0_822_1386">
<rect width="23.3865" height="23.3865" fill="white" transform="translate(0 0.806885)"/>
</clipPath>
</defs>
</svg>
