<svg width="24" height="25" viewBox="0 0 24 25" fill="none" xmlns="http://www.w3.org/2000/svg">
<path d="M12.0219 16.4955C9.82188 16.4955 8.02652 14.7001 8.02652 12.5C8.02652 10.3 9.82188 8.5046 12.0219 8.5046C14.2219 8.5046 16.0172 10.3 16.0172 12.5C16.0172 14.7001 14.2219 16.4955 12.0219 16.4955ZM24.0049 12.5C24.0049 14.1545 24.0199 15.7941 23.927 17.4456C23.8341 19.3639 23.3965 21.0664 21.9938 22.4691C20.588 23.8749 18.8886 24.3095 16.9703 24.4024C15.3159 24.4953 13.6764 24.4803 12.0249 24.4803C10.3704 24.4803 8.73087 24.4953 7.07938 24.4024C5.16113 24.3095 3.45869 23.8719 2.05597 22.4691C0.650253 21.0634 0.21565 19.3639 0.122735 17.4456C0.02982 15.7911 0.0448063 14.1516 0.0448063 12.5C0.0448063 10.8485 0.02982 9.20598 0.122735 7.55445C0.21565 5.63617 0.653251 3.93369 2.05597 2.53095C3.46169 1.12521 5.16113 0.690596 7.07938 0.597679C8.73387 0.504761 10.3734 0.519747 12.0249 0.519747C13.6794 0.519747 15.3189 0.504761 16.9703 0.597679C18.8886 0.690596 20.591 1.1282 21.9938 2.53095C23.3995 3.93669 23.8341 5.63617 23.927 7.55445C24.0229 9.20598 24.0049 10.8455 24.0049 12.5ZM12.0219 6.35253C8.61997 6.35253 5.87448 9.09807 5.87448 12.5C5.87448 15.902 8.61997 18.6475 12.0219 18.6475C15.4238 18.6475 18.1693 15.902 18.1693 12.5C18.1693 9.09807 15.4238 6.35253 12.0219 6.35253ZM18.421 17.4636C17.6267 17.4636 16.9853 18.105 16.9853 18.8993C16.9853 19.6936 17.6267 20.335 18.421 20.335C19.2153 20.335 19.8567 19.6936 19.8567 18.8993C19.8569 18.7107 19.82 18.5239 19.7479 18.3496C19.6758 18.1753 19.5701 18.0169 19.4367 17.8836C19.3034 17.7502 19.145 17.6445 18.9707 17.5724C18.7964 17.5003 18.6096 17.4634 18.421 17.4636Z" fill="white"/>
</svg>
