<svg width="24" height="27" viewBox="0 0 24 27" fill="none" xmlns="http://www.w3.org/2000/svg">
<g clip-path="url(#clip0_822_1390)">
<path d="M17.6348 9.79271C19.3411 11.0118 21.4315 11.7291 23.6891 11.7291V7.3871C23.2618 7.38719 22.8357 7.34261 22.4176 7.25409V10.6719C20.1602 10.6719 18.0701 9.95468 16.3635 8.73566V17.5966C16.3635 22.0293 12.7682 25.6224 8.33351 25.6224C6.67882 25.6224 5.1408 25.1225 3.86322 24.2649C5.3214 25.7552 7.35493 26.6796 9.6046 26.6796C14.0396 26.6796 17.635 23.0865 17.635 18.6535V9.79271H17.6348ZM19.2034 5.41213C18.3313 4.45996 17.7587 3.22943 17.6348 1.86899V1.31055H16.43C16.7333 3.03959 17.7678 4.51678 19.2033 5.41213H19.2034ZM6.66813 20.8635C6.18094 20.225 5.91758 19.4439 5.91876 18.6408C5.91876 16.6135 7.56322 14.9697 9.59208 14.9697C9.97012 14.9695 10.3459 15.0275 10.7063 15.1417V10.7026C10.2852 10.6449 9.86021 10.6204 9.43541 10.6294V14.0846C9.07486 13.9703 8.69885 13.9123 8.32063 13.9127C6.29185 13.9127 4.64749 15.5563 4.64749 17.5839C4.64749 19.0176 5.4694 20.2588 6.66813 20.8635Z" fill="white"/>
<path d="M16.3635 8.73557C18.0703 9.95459 20.1602 10.6718 22.4177 10.6718V7.254C21.1576 6.98569 20.0421 6.32758 19.2034 5.41213C17.7677 4.51669 16.7333 3.0395 16.43 1.31055H13.2653V18.6534C13.2581 20.6752 11.6165 22.3122 9.59197 22.3122C8.39908 22.3122 7.3392 21.7439 6.66802 20.8634C5.46947 20.2588 4.64747 19.0175 4.64747 17.584C4.64747 15.5566 6.29183 13.9127 8.32061 13.9127C8.70932 13.9127 9.08396 13.9732 9.43539 14.0847V10.6295C5.07857 10.7195 1.57471 14.2775 1.57471 18.6534C1.57471 20.8379 2.44722 22.8182 3.86338 24.2651C5.14096 25.1225 6.6789 25.6226 8.33367 25.6226C12.7684 25.6226 16.3636 22.0292 16.3636 17.5966V8.73566H16.3635V8.73557Z" fill="white"/>
<path d="M22.4177 7.25407V6.33013C21.2814 6.33185 20.1675 6.01378 19.2034 5.4123C20.0568 6.34612 21.1806 6.99009 22.4177 7.25426V7.25407ZM16.43 1.31062C16.4011 1.14542 16.3789 0.979109 16.3635 0.812106V0.253662H11.9937V17.5967C11.9867 19.6183 10.3451 21.2554 8.32052 21.2554C7.74657 21.2562 7.18047 21.1221 6.66794 20.8637C7.33911 21.7441 8.39899 22.3123 9.59189 22.3123C11.6163 22.3123 13.2581 20.6754 13.2652 18.6536V1.31071H16.43V1.31062ZM9.43558 10.6296V9.6458C9.07043 9.59589 8.70231 9.57092 8.33377 9.57107C3.89856 9.57107 0.303345 13.1644 0.303345 17.5967C0.303345 20.3755 1.71631 22.8245 3.86348 24.2651C2.44732 22.8182 1.5748 20.8379 1.5748 18.6535C1.5748 14.2777 5.07857 10.7197 9.43558 10.6297V10.6296Z" fill="white"/>
</g>
<defs>
<clipPath id="clip0_822_1390">
<rect width="23.3865" height="26.4925" fill="white" transform="translate(0.303345 0.253662)"/>
</clipPath>
</defs>
</svg>
