<svg width="29" height="21" viewBox="0 0 29 21" fill="none" xmlns="http://www.w3.org/2000/svg">
<path fill-rule="evenodd" clip-rule="evenodd" d="M27.2168 2.17783C27.6526 2.6136 27.9666 3.15592 28.1275 3.75079C29.0544 7.48174 28.8403 13.3744 28.1455 17.2494C27.9845 17.8442 27.6705 18.3866 27.2347 18.8223C26.799 19.2581 26.2566 19.5721 25.6617 19.7331C23.4841 20.3271 14.7191 20.3271 14.7191 20.3271C14.7191 20.3271 5.95397 20.3271 3.77617 19.7331C3.18131 19.5721 2.639 19.2581 2.20325 18.8223C1.76749 18.3865 1.4535 17.8442 1.29253 17.2494C0.360178 13.5346 0.615712 7.63839 1.27444 3.76888C1.4354 3.17399 1.74938 2.63165 2.18514 2.19585C2.62089 1.76006 3.16321 1.44602 3.75809 1.28502C5.93588 0.691074 14.7012 0.673096 14.7012 0.673096C14.7012 0.673096 23.4661 0.673096 25.6439 1.26704C26.2387 1.42803 26.781 1.74205 27.2168 2.17783ZM19.1827 10.5L11.9115 14.7115V6.28845L19.1827 10.5Z" fill="white"/>
</svg>
